<svg xmlns="http://www.w3.org/2000/svg" width="1000" height="193.613" viewBox="0 0 264.58333 51.226776"><defs><linearGradient id="b" x1="0" x2="1" y1="0" y2="0" gradientTransform="rotate(135 10.116 223.173) scale(16.53669 -50.68527)" gradientUnits="userSpaceOnUse" spreadMethod="pad"><stop offset="0" style="stop-opacity:1;stop-color:#29702a"/><stop offset="0.21507226" style="stop-opacity:1;stop-color:#cadb2e"/><stop offset="0.6" style="stop-opacity:1;stop-color:#cadb2e"/><stop offset="1" style="stop-opacity:1;stop-color:#cadb2e"/></linearGradient><linearGradient id="c" x1="0" x2="1" y1="0" y2="0" gradientTransform="matrix(-28.16736 -28.7275 -48.21259 47.27902 201.864 386.851)" gradientUnits="userSpaceOnUse" spreadMethod="pad"><stop offset="0" style="stop-opacity:1;stop-color:#00a880"/><stop offset="0.6137785" style="stop-opacity:1;stop-color:#00a880"/><stop offset="0.86" style="stop-opacity:1;stop-color:#6ac49c"/><stop offset="0.87925101" style="stop-opacity:1;stop-color:#6ac49c"/><stop offset="1" style="stop-opacity:1;stop-color:#00a880"/></linearGradient><clipPath id="a" clipPathUnits="userSpaceOnUse"><path d="M0 737.01h510.24V0H0Z"/></clipPath></defs><g clip-path="url(#a)" transform="matrix(1.47596 0 0 -1.47601 -238.697 574.214)"><path d="M0 0h12.578v-8.227h6.391V0h12.614v4.633H0Z" style="fill:#00a880;fill-opacity:1;fill-rule:nonzero;stroke:none" transform="translate(242.186 363.701)"/><path d="M0 0v4.63h-21.943v-.001c-.64-.017-6.605-.352-6.605-6.628v-8.921H0v4.631h-22.146V0Z" style="fill:#00a880;fill-opacity:1;fill-rule:nonzero;stroke:none" transform="translate(272.16 382.594)"/><path d="M0 0h-6.516v-6.06h-12.491v-4.628h31.44v4.628H0Z" style="fill:#00a880;fill-opacity:1;fill-rule:nonzero;stroke:none" transform="translate(228.23 366.21)"/><path d="M232.602 372.695h-15.436v9.831h15.436zm-6.397 14.496h-8.83v-.002c-.641-.02-6.607-.353-6.607-6.676V368.03H239v19.161z" style="fill:#00a880;fill-opacity:1;fill-rule:nonzero;stroke:none"/><path d="M0 0h12.569v-7.067h6.393V0h12.616v4.631H0Z" style="fill:#00a880;fill-opacity:1;fill-rule:nonzero;stroke:none" transform="translate(275.53 362.542)"/><path d="M0 0v4.517h-21.781v-.004c-.639-.015-6.6-.352-6.6-6.625v-10.969H0v4.437h-21.988v2.165H-.427v4.317h-21.561V0Z" style="fill:#00a880;fill-opacity:1;fill-rule:nonzero;stroke:none" transform="translate(305.414 382.696)"/><path d="M0 0c-.854-1.573-2.048-2.354-3.587-2.354-1.542 0-2.73.781-3.584 2.354-.85 1.569-1.276 3.872-1.276 6.913 0 3.037.426 5.343 1.276 6.913.854 1.573 2.042 2.352 3.584 2.352 1.539 0 2.733-.779 3.587-2.352.841-1.57 1.264-3.876 1.264-6.913C1.264 3.872.841 1.569 0 0m16.834 15.693v.126c-.447 5.865-6.345 5.867-6.345 5.867V10.445h-3.2c-.439 3.427-1.519 6.054-3.249 7.861-1.876 1.955-4.417 2.93-7.627 2.93-3.546 0-6.282-1.198-8.209-3.598-1.928-2.405-2.888-5.975-2.888-10.725s.96-8.326 2.888-10.725c1.927-2.402 4.663-3.601 8.209-3.601 3.21 0 5.754.996 7.646 2.985C5.949-2.434 7.062.529 7.391 4.458c.028.279.053.567.066.853h3.032v-16.41h6.356v26.792z" style="fill:#00a880;fill-opacity:1;fill-rule:nonzero;stroke:none" transform="translate(324.14 366.574)"/></g><path d="M165.435 385.249c-4.4-4.565-5.007-11.565-1.183-15.854l3.154-3.308 17.371 17.485-2.081 1.999a12.02 12.02 0 0 1-8.443 3.46 12.208 12.208 0 0 1-8.818-3.782" style="fill:url(#b);stroke:none" transform="matrix(1.47596 0 0 -1.47601 -238.697 574.214)"/><path d="m184.565 385.205-14.14-14.739c-1.862-1.936-4.223-2.785-6.173-1.071l10.933-11.478c4.783-4.823 12.695-4.726 17.294-.091l9.67 10.171c4.712 4.898 4.433 12.551-.419 17.302-2.423 2.373-5.527 3.576-8.615 3.576-3.102 0-6.188-1.214-8.55-3.67" style="fill:url(#c);stroke:none" transform="matrix(1.47596 0 0 -1.47601 -238.697 574.214)"/></svg>